<?xml version="1.0" standalone="no"?>
<!DOCTYPE svg PUBLIC "-//W3C//DTD SVG 20010904//EN"
 "http://www.w3.org/TR/2001/REC-SVG-20010904/DTD/svg10.dtd">
<svg version="1.0" xmlns="http://www.w3.org/2000/svg"
 width="618.000000pt" height="618.000000pt" viewBox="0 0 618.000000 618.000000"
 preserveAspectRatio="xMidYMid meet">
<metadata>
Created by potrace 1.14, written by Peter Selinger 2001-2017
</metadata>
<g transform="translate(0.000000,618.000000) scale(0.100000,-0.100000)"
fill="#000000" stroke="none">
<path d="M4618 5235 c-2 -1 -39 -5 -83 -9 -111 -9 -143 -14 -275 -42 -620
-131 -1178 -487 -1571 -1004 -65 -85 -179 -254 -179 -265 0 -3 -11 -22 -24
-43 -21 -33 -32 -40 -82 -52 -33 -7 -63 -15 -69 -16 -28 -7 -197 -65 -245 -84
-390 -155 -709 -374 -1008 -693 -41 -44 -52 -63 -52 -90 0 -43 28 -73 83 -88
52 -14 125 -37 152 -48 11 -5 43 -17 70 -26 52 -18 308 -141 359 -172 16 -10
73 -46 125 -81 53 -34 106 -65 119 -69 30 -7 70 14 87 47 40 77 148 152 240
165 l49 8 -35 -42 c-18 -24 -41 -52 -49 -64 -8 -12 -22 -30 -30 -39 -8 -9 -31
-41 -50 -71 -31 -48 -40 -55 -75 -61 -22 -3 -82 -16 -134 -28 l-93 -22 -17 22
c-27 37 -77 32 -173 -18 -126 -65 -233 -144 -338 -250 -275 -278 -410 -658
-365 -1028 13 -104 58 -123 285 -117 142 3 171 7 277 36 228 63 408 166 573
329 124 122 177 194 255 344 51 98 56 136 21 171 l-24 24 19 73 c23 88 37 181
38 249 1 31 7 40 59 76 31 22 89 68 128 101 l72 60 5 -31 c8 -59 -4 -152 -28
-203 -23 -51 -78 -115 -124 -144 -73 -45 -81 -94 -29 -168 18 -26 35 -49 38
-52 25 -23 220 -384 220 -407 0 -3 7 -21 16 -41 28 -64 32 -75 63 -170 17 -52
31 -100 31 -107 0 -7 14 -25 31 -39 39 -33 80 -28 128 17 266 247 453 493 614
812 72 141 162 387 196 532 12 49 16 54 69 84 567 320 1025 883 1226 1509 37
117 81 305 92 401 3 30 10 77 15 104 10 66 9 422 -2 505 -16 120 -20 134 -34
156 -8 12 -29 24 -47 28 -18 3 -43 8 -55 10 -72 14 -453 31 -465 21z m-325
-769 c71 -35 101 -58 135 -109 121 -178 64 -408 -125 -502 -51 -26 -69 -29
-148 -30 -74 0 -99 4 -138 23 -203 97 -264 348 -126 522 94 119 269 161 402
96z"/>
</g>
</svg>
